<?xml version="1.0" encoding="UTF-8" standalone="no"?>
<!-- Created with Inkscape (http://www.inkscape.org/) -->

<svg
   width="180.62222mm"
   height="180.62222mm"
   viewBox="0 0 180.62222 180.62222"
   version="1.1"
   id="svg5"
   xml:space="preserve"
   xmlns="http://www.w3.org/2000/svg"
   xmlns:svg="http://www.w3.org/2000/svg"><defs
     id="defs2" /><g
     id="layer1"
     transform="translate(-14.512418,-58.500862)"><g
       id="g438"
       transform="translate(-2.1289818,-3.6312656)"><path
         style="fill:#5bd1ce;stroke-width:0.352778"
         d="m 113.92271,227.1654 c -2.49321,-0.84972 -2.50749,-0.89616 -1.37135,-4.46011 2.54096,-7.9707 8.94052,-15.23126 15.86823,-18.00318 0.79814,-0.31935 1.45116,-0.71913 1.45116,-0.88839 0,-0.34652 -0.10444,-0.37299 -5.46806,-1.38614 -6.8377,-1.29159 -10.53973,-2.14671 -12.30607,-2.84253 -0.9475,-0.37325 -2.06502,-0.67863 -2.48336,-0.67863 -0.93601,0 -5.26926,-2.22312 -6.78939,-3.48322 -8.095406,-6.71058 -10.59931,-10.31444 -12.839114,-18.47928 -1.264193,-4.60842 -1.551502,-3.82857 -1.669563,4.53175 -0.05729,4.05712 -0.136666,8.51735 -0.176389,9.91162 -0.06606,2.31897 0.0085,2.61964 0.875475,3.52777 2.041924,2.13898 1.998243,4.49354 -0.116367,6.27286 -3.669461,3.08765 -8.112556,-2.25952 -4.909125,-5.90802 1.50453,-1.71357 1.629702,-4.96599 0.254042,-6.60087 -0.516311,-0.6136 -0.938745,-1.31074 -0.938745,-1.5492 0,-1.53779 -6.609532,-8.07394 -13.405556,-13.25673 -2.090144,-1.59399 -6.669796,-5.54155 -7.674398,-6.61516 -0.813237,-0.86911 -3.967268,-0.90334 -3.967268,-0.0431 0,0.25758 4.31733,5.09528 5.299953,5.93876 8.235735,7.06952 10.8452,22.01944 5.833167,33.41886 -0.690439,1.57034 -1.255342,3.00406 -1.255342,3.18605 0,0.64991 -2.131219,3.25898 -2.6621,3.25898 -3.532632,0 -3.836547,-1.77022 -1.231237,-7.17157 0.97717,-2.02587 1.77667,-3.95023 1.77667,-4.27633 0,-0.32611 0.164557,-0.90041 0.365679,-1.27621 3.463494,-6.4716 0.0229,-16.62049 -8.78217,-25.90506 -26.856379,-28.31897 -19.440545,-73.31461 14.94288,-90.666042 6.437496,-3.248653 9.055763,-4.082324 18.344444,-5.840974 2.954997,-0.559477 17.440404,-0.77036 20.284724,-0.295311 11.91952,1.990758 19.16343,4.769877 27.62286,10.597485 13.86844,9.553824 21.76889,24.816992 19.96953,38.579842 -1.12156,8.57846 0.87505,13.76732 8.32271,21.62935 5.02768,5.30741 5.46823,5.90066 5.46823,7.36352 0,2.15769 -2.3591,5.03599 -6.03694,7.36559 -1.291,0.81773 -2.07695,2.66106 -2.07695,4.87117 0,0.92577 0.14471,1.11546 2.27666,2.98422 1.4091,1.23514 1.12172,5.14929 -0.44232,6.02457 -0.48803,0.27312 -0.49894,0.53931 -0.0917,2.23702 0.55427,2.31044 0.0931,4.20363 -1.23601,5.07453 -2.378,1.55812 -2.98394,4.77284 -1.75213,9.29568 1.83535,6.73886 -1.87443,12.40184 -9.16147,13.98499 -3.43057,0.7453 -6.21777,0.60125 -15.25431,-0.78842 -2.33934,-0.35976 -8.97378,2.41263 -12.90424,5.39239 -4.25611,3.22664 -7.01478,7.26232 -8.67848,12.69576 -0.89463,2.92177 -1.05089,3.03012 -3.27629,2.27167 z m 39.43641,-24.54363 c 4.51862,-1.34188 6.49512,-4.44248 5.2221,-8.19207 -0.68342,-2.01296 -0.76961,-6.12704 -0.16663,-7.95316 0.69004,-2.08975 0.38866,-2.40844 -4.55359,-4.81522 -2.52311,-1.22871 -4.57587,-2.41528 -4.56169,-2.63682 0.0764,-1.19336 1.31949,-2.43988 3.03321,-3.04155 3.7585,-1.31956 7.78045,-4.95697 7.36418,-6.66008 -0.12526,-0.51246 -0.36538,-1.64611 -0.53362,-2.51923 -0.45134,-2.34244 -0.66266,-2.71398 -1.81506,-3.19132 -4.37758,-1.81325 -2.09794,-7.76663 3.30259,-8.62486 1.25178,-0.19893 1.76896,-0.91929 1.00083,-1.39402 -0.17714,-0.10948 -0.42711,-0.82076 -0.55549,-1.58061 -0.19548,-1.15707 -0.4441,-1.47576 -1.53,-1.96125 -2.78514,-1.24521 -4.24331,-2.17475 -7.48715,-4.77282 -3.36833,-2.69779 -3.36833,-2.69779 -6.38223,-2.5396 -4.80746,0.25233 -7.9217,-1.01479 -12.29804,-5.0038 -3.00759,-2.7414 -3.66106,-2.92628 -7.28642,-2.06143 -1.71629,0.40943 -4.13601,0.8213 -5.37716,0.91525 -1.84715,0.13983 -2.40986,0.33608 -3.10108,1.08153 -0.71168,0.76751 -1.15122,0.91071 -2.79547,0.91071 -2.13048,0 -3.95822,1.3338 -9.42663,6.87916 -7.947084,8.05892 -13.657459,19.40672 -13.635887,27.09759 0.02,7.12957 9.932667,21.40936 14.861827,21.40936 0.18208,0 0.76119,0.30862 1.28691,0.68582 2.63619,1.89146 12.26974,4.55397 20.53502,5.67544 2.54508,0.34533 9.44993,1.35987 12.34722,1.81421 7.03692,1.10348 10.06032,1.2188 12.55226,0.47877 z M 86.340911,181.7085 c -0.12677,-0.7276 -0.396903,-2.67229 -0.600297,-4.32153 -0.941444,-7.63384 -3.373494,-14.49845 -5.863921,-16.55126 -2.787689,-2.29785 -6.801888,-3.20557 -8.161839,-1.84562 -1.694099,1.6941 -1.488972,2.244 2.29453,6.15123 5.453899,5.63226 8.799245,10.61627 10.883378,16.2144 0.783777,2.10528 1.796468,2.35198 1.448149,0.35278 z m -5.646825,-4.17184 c -2.429817,-4.56759 -11.317771,-14.96635 -12.791923,-14.96635 -0.279464,0 -0.992784,-0.25064 -1.585158,-0.55696 -0.879754,-0.45494 -1.262126,-0.4803 -2.087453,-0.13844 -2.840126,1.17642 -2.133032,2.24105 5.845365,8.80104 3.4925,2.8716 7.540625,6.33223 8.995834,7.69028 3.304367,3.08375 3.61945,2.92274 1.623335,-0.82957 z M 56.00984,160.77864 c 0.670522,-0.77297 0.652029,-0.85329 -0.884145,-3.84015 -0.752003,-1.46215 -1.646136,-3.53159 -1.986958,-4.59874 -0.732229,-2.29269 -1.098761,-2.82222 -1.953489,-2.82222 -2.965915,0 -3.608751,-5.30857 -0.905387,-7.47672 1.187281,-0.95222 0.905846,-14.77489 -0.330746,-16.24449 -0.448647,-0.53319 -0.916764,-1.28779 -1.04026,-1.67689 -0.629464,-1.98326 -1.746064,-0.53108 -2.247462,2.92293 -1.507943,10.38783 0.652029,22.83792 5.490519,31.64739 2.667229,4.85624 2.66585,4.85457 3.043357,3.67843 0.182291,-0.56793 0.548849,-1.28322 0.814571,-1.58954 z m 7.378333,-0.83813 c 0.578835,-0.57884 0.865911,-1.26245 0.865911,-2.06199 0,-0.74806 0.264284,-1.43526 0.705556,-1.8346 0.854879,-0.77366 0.882314,-1.43144 0.134309,-3.22012 -0.338028,-0.80831 -0.647612,-2.85885 -0.758292,-5.0226 -0.187046,-3.6566 -0.187046,-3.6566 -3.277927,-3.50882 -3.448646,0.16488 -4.034754,0.46569 -4.367953,2.24178 -0.138557,0.73857 -0.573359,1.44994 -1.095234,1.79189 -1.564297,1.02497 1.228422,9.59258 3.540213,10.86081 0.385826,0.21166 1.081924,0.66265 1.546882,1.0022 1.134787,0.82871 1.679278,0.77871 2.706535,-0.24855 z m 17.261879,-4.7248 c -3.805971,-7.649 -11.77478,-13.64569 -13.600366,-10.23455 -1.404472,2.62428 0.298527,9.89638 2.43701,10.40644 0.517549,0.12344 1.099749,0.34203 1.293777,0.48576 0.194028,0.14372 1.622778,0.33365 3.175,0.42207 3.031165,0.17267 4.923179,0.90592 7.230258,2.80211 1.847748,1.51865 1.731183,0.67396 -0.535679,-3.88183 z m 17.219443,-4.85749 c 2.101014,-2.91693 5.059225,-6.11264 10.217225,-11.03749 3.08681,-2.94729 3.08681,-2.94729 3.08681,-4.81623 0,-3.02652 -2.93078,-5.1564 -4.06836,-2.95657 -0.30728,0.59422 -1.62104,2.69996 -2.91947,4.67942 -5.678683,8.65719 -9.104614,14.63605 -10.120307,17.66175 -1.332939,3.97076 -1.123551,4.75852 0.468027,1.76079 0.733146,-1.38088 2.234382,-3.76213 3.336075,-5.29167 z m -9.984701,-10.20279 c 0.0054,-12.71349 0.0054,-12.71349 -1.561095,-14.02292 -4.274964,-3.57343 -4.585172,-1.59046 -1.837083,11.74335 0.299918,1.45521 0.712142,3.75708 0.916055,5.11528 2.077053,13.83456 2.475233,13.37966 2.482123,-2.83571 z m -6.537523,9.99238 c -0.136937,-0.62349 -1.14174,-3.04578 -2.232889,-5.38288 -6.614862,-14.16816 -7.838182,-15.25319 -10.682739,-9.47507 -2.064251,4.19308 -1.70603,6.08135 1.290497,6.80248 3.96356,0.95384 6.534181,2.7964 10.050402,7.2039 1.847899,2.3163 1.902982,2.34609 1.574729,0.85157 z m 9.742883,-1.77681 c 0.412951,-1.4067 1.526074,-4.95793 2.473607,-7.89162 2.004427,-6.20596 3.899722,-13.70887 3.636345,-14.39521 -0.423757,-1.10429 -3.846145,-1.18459 -4.882472,-0.11456 -0.422808,0.43656 -1.046805,0.9525 -1.386661,1.14653 -0.622878,0.35561 -1.424075,23.8125 -0.813343,23.8125 0.121934,0 0.559569,-1.15094 0.972524,-2.55764 z m -35.061119,-5.58665 c 0.546209,-0.21074 2.651107,-0.56793 4.677555,-0.79375 3.684449,-0.41057 3.684449,-0.41057 4.161906,-3.01514 0.482476,-2.63193 1.159009,-4.27595 2.684879,-6.52445 1.123798,-1.65601 0.600565,-4.22879 -1.034846,-5.08842 -4.66199,-2.45051 -8.931779,-3.28167 -10.421006,-2.02857 -0.588521,0.49521 -1.456062,0.99727 -1.927867,1.11568 -1.23045,0.30882 -1.341271,1.18438 -1.076752,8.50696 0.286075,7.91921 0.591129,8.73247 2.936131,7.82769 z m 67.204065,-8.9989 c 1.41939,-0.30945 4.56508,-0.74826 6.99043,-0.97513 4.40972,-0.4125 4.40972,-0.4125 4.53331,-14.7926 0.10051,-11.69416 0.0346,-14.48716 -0.35278,-14.95331 -0.262,-0.31527 -0.55574,-1.53618 -0.65275,-2.71314 -0.23615,-2.864852 -4.80519,-6.159948 -6.68522,-4.821248 -0.55463,0.394935 -1.17102,0.718062 -1.36974,0.718062 -2.10574,0 -2.31419,17.853726 -0.23532,20.154786 2.12373,2.35072 1.75326,4.16438 -1.32363,6.47994 -0.91978,0.69219 -5.90832,8.92795 -5.90832,9.75425 0,1.62467 1.37355,1.93989 5.00402,1.14839 z m -5.28439,-5.52278 c 3.07411,-4.89369 3.14793,-5.15766 1.86787,-6.67892 -1.66197,-1.97515 -1.04102,-4.99025 1.22067,-5.92707 1.40394,-0.58153 1.72402,-18.594036 0.36683,-20.643318 -0.38549,-0.582084 -0.70195,-1.475458 -0.70323,-1.985277 -0.005,-1.993857 -4.13746,-2.800271 -5.72823,-1.117815 -0.51297,0.542534 -1.18074,1.191121 -1.48394,1.441306 -1.54467,1.274594 -0.68805,15.694294 1.03624,17.443284 2.23169,2.26367 2.05639,4.85141 -0.42571,6.28449 -0.93612,0.54049 -4.69506,8.84753 -4.68421,10.35185 0.0269,3.73318 6.32541,4.34686 8.53371,0.83147 z m 35.96801,-0.17639 c 0.67065,-1.90973 0.63033,-8.5561 -0.0576,-9.49355 -3.36144,-4.58068 -8.70739,-10.46077 -9.2216,-10.14297 -0.51116,0.31591 -0.37933,15.87149 0.13809,16.29563 0.24254,0.19882 1.08537,0.53372 1.87296,0.74423 1.53266,0.40964 4.20735,2.03893 5.26408,3.2066 0.94371,1.04279 1.48111,0.87924 2.00407,-0.60994 z m -13.98824,-2.23212 c 2.3942,-1.08558 2.3942,-1.08558 2.20366,-10.52694 -0.20246,-10.03234 -0.21574,-10.107 -2.06366,-11.60068 -1.02661,-0.82981 -2.14542,-0.66478 -2.87219,0.42366 -0.49892,0.74721 -0.24609,22.78955 0.2614,22.78955 0.0421,0 1.15398,-0.48851 2.47079,-1.08559 z M 108.52564,122.971 c 2.19152,-4.64166 2.22704,-4.89933 0.92028,-6.67625 -1.575,-2.14167 -1.35201,-4.2827 0.63316,-6.07926 1.98457,-1.79601 0.82094,-19.494953 -1.35839,-20.661297 -1.37531,-0.736042 -5.56012,-1.237376 -6.16165,-0.738155 -1.33469,1.107698 -0.74834,17.229832 0.67699,18.614082 1.88575,1.83142 1.69753,4.53284 -0.4416,6.33804 -0.90678,0.76522 -1.33243,2.5068 -2.05523,8.40909 -0.21601,1.76389 -0.21601,1.76389 2.19874,2.87678 3.75778,1.73186 3.79267,1.71886 5.5877,-2.08303 z m -38.744558,2.35486 c 0.205069,-0.5344 -1.185189,-4.65405 -4.217434,-12.49722 -1.707638,-4.41696 -1.82155,-4.58611 -3.088432,-4.58611 -1.823078,0 -5.989242,5.62092 -7.370854,9.94463 -0.624558,1.95453 1.368665,3.96468 4.218069,4.25389 1.086495,0.11028 3.659953,0.89437 5.820833,1.7735 4.58017,1.8634 4.368662,1.81272 4.637818,1.11131 z m 6.861376,-0.56019 c 3.048994,-1.22492 2.939789,-0.89514 2.27585,-6.87278 -0.320142,-2.88235 -0.829497,-6.98689 -1.131898,-9.1212 -0.302401,-2.1343 -0.732744,-5.1975 -0.95632,-6.80711 -0.80173,-5.771992 -2.830904,-5.916207 -8.532703,-0.60644 -1.404165,1.30762 -1.533981,1.56511 -1.352589,2.6829 0.122661,0.75587 -0.01386,1.74985 -0.351251,2.55733 -0.551437,1.31978 -0.549867,1.32614 1.862604,7.56794 1.327975,3.43588 2.708229,7.18275 3.06723,8.32638 0.528337,1.68307 0.855891,2.16785 1.7188,2.54383 1.376179,0.59962 1.198291,0.61379 3.400277,-0.27085 z m 21.441692,-1.99086 c 0.187547,-0.35044 0.599711,-2.05701 0.915917,-3.79236 0.316208,-1.73536 0.653238,-3.42655 0.748957,-3.75819 0.105834,-0.36668 -0.192306,-0.91969 -0.76074,-1.41111 -2.37339,-2.0518 -2.564645,-4.38373 -0.514756,-6.27618 1.411111,-1.30273 1.411111,-1.30273 1.411111,-9.95678 0,-10.594612 0.562291,-9.830863 -6.274283,-8.522276 -0.470764,0.09011 -0.957894,0.553235 -1.170732,1.113041 -0.20048,0.527297 -0.750489,1.464771 -1.222244,2.083276 -1.574892,2.06479 -1.29418,13.479419 0.376981,15.329199 1.801785,1.99435 1.615095,4.80532 -0.407151,6.13034 -1.292168,0.84666 -1.251331,5.8765 0.05466,6.73222 0.485229,0.31793 1.081786,0.99628 1.325686,1.50744 0.351586,0.73684 0.771762,0.97321 2.028187,1.14098 2.760179,0.36854 3.138681,0.33386 3.488408,-0.3196 z m -12.311571,-1.12547 c 0.309792,-0.4107 0.952673,-0.94032 1.42863,-1.17694 1.574105,-0.78258 1.471274,-5.42685 -0.156196,-7.05432 -2.112161,-2.11216 -2.002183,-4.52124 0.297145,-6.50896 1.391102,-1.20258 1.031826,-13.046326 -0.443787,-14.629786 -1.747485,-1.875197 -6.219017,-0.165215 -7.272348,2.781056 -0.972824,2.721088 -1.004673,3.313162 -0.397591,7.39087 0.619305,4.15982 1.414882,10.33544 1.768612,13.72877 0.692238,6.64058 2.408978,8.60672 4.775535,5.46931 z M 49.349416,121.1192 c 0.436668,-0.67413 1.349482,-1.45782 2.028473,-1.74152 0.678992,-0.2837 1.234529,-0.75443 1.234529,-1.04607 0,-1.01292 3.575769,-7.53815 5.310639,-9.69111 1.449391,-1.79867 1.744916,-2.40803 1.744916,-3.59794 0,-2.55677 1.103923,-3.8243 3.351389,-3.84808 1.455166,-0.0154 1.328554,0.0631 7.33897,-4.54781 1.217316,-0.933859 2.009641,-1.810061 2.009641,-2.22238 0,-2.865088 3.333905,-4.931757 6.242985,-3.869989 1.964287,0.716934 4.356784,-0.32272 6.446918,-2.801495 2.086462,-2.474423 4.986038,-3.121653 6.766472,-1.510382 0.911849,0.82521 4.944385,0.192541 6.800282,-1.066903 1.97925,-1.343159 3.58966,-1.109928 6.15828,0.891888 1.08899,0.848688 4.12491,0.899908 5.02561,0.08479 1.64275,-1.486675 5.68315,-0.852979 6.46837,1.014499 0.67193,1.598067 4.87604,2.947722 6.74698,2.165998 1.93715,-0.809395 4.10218,0.05721 4.95136,1.981909 0.383,0.868084 0.98176,1.526115 1.6348,1.796613 0.56675,0.234756 1.97388,1.036588 3.12694,1.781848 1.47803,0.955298 2.48507,1.35502 3.41379,1.35502 1.72731,0 3.85606,1.451596 4.54429,3.098747 0.90415,2.163957 10.70186,12.887137 11.26257,12.326417 0.3901,-0.3901 -0.606,-2.36457 -3.06351,-6.07255 -22.87242,-34.510585 -79.832056,-30.705835 -97.837326,6.53527 -3.195556,6.60952 -4.452057,13.22053 -1.707368,8.98323 z"
         id="path442" /><path
         style="fill:#0b2b34;stroke-width:0.352778"
         d="m 84.892762,181.35572 c -2.084133,-5.59813 -5.429479,-10.58214 -10.883378,-16.2144 -3.783502,-3.90723 -3.988629,-4.45713 -2.29453,-6.15123 1.359951,-1.35995 5.37415,-0.45223 8.161839,1.84562 2.490427,2.05281 4.922477,8.91742 5.863921,16.55126 0.203394,1.64924 0.473527,3.59393 0.600297,4.32153 0.348319,1.9992 -0.664372,1.7525 -1.448149,-0.35278 z m -5.822011,-2.98949 c -1.455209,-1.35805 -5.503334,-4.81868 -8.995834,-7.69028 -7.978397,-6.55999 -8.685491,-7.62462 -5.845365,-8.80104 0.825327,-0.34186 1.207699,-0.3165 2.087453,0.13844 0.592374,0.30632 1.305694,0.55696 1.585158,0.55696 1.474152,0 10.362106,10.39876 12.791923,14.96635 1.996115,3.75231 1.681032,3.91332 -1.623335,0.82957 z M 54.137589,162.19179 c -6.589817,-10.97014 -9.202817,-23.25519 -7.476196,-35.14943 0.501398,-3.45401 1.617998,-4.90619 2.247462,-2.92293 0.123496,0.3891 0.591613,1.1437 1.04026,1.67689 1.236592,1.4696 1.518027,15.29227 0.330746,16.24449 -2.703364,2.16815 -2.060528,7.47672 0.905387,7.47672 0.854728,0 1.22126,0.52953 1.953489,2.82222 0.340822,1.06715 1.234955,3.13659 1.986958,4.59874 1.536174,2.98686 1.554667,3.06718 0.884145,3.84015 -0.265722,0.30632 -0.63228,1.02161 -0.814571,1.58954 -0.331434,1.0326 -0.331434,1.0326 -1.05768,-0.17639 z m 6.544049,-2.00273 c -0.464958,-0.33955 -1.161056,-0.79054 -1.546882,-1.0022 -2.311791,-1.26823 -5.10451,-9.83584 -3.540213,-10.86081 0.521875,-0.34195 0.956677,-1.05332 1.095234,-1.79189 0.333199,-1.77609 0.919307,-2.0769 4.367953,-2.24178 3.090881,-0.14778 3.090881,-0.14778 3.277927,3.50882 0.11068,2.16375 0.420264,4.21429 0.758292,5.0226 0.748005,1.78868 0.72057,2.44646 -0.134309,3.22012 -0.441272,0.39934 -0.705556,1.08654 -0.705556,1.8346 0,2.23181 -1.951725,3.49412 -3.572446,2.31054 z m 20.504093,-1.09152 c -2.307079,-1.89619 -4.199093,-2.62944 -7.230258,-2.80211 -1.552222,-0.0884 -2.980972,-0.27835 -3.175,-0.42207 -0.194028,-0.14373 -0.776228,-0.36232 -1.293777,-0.48576 -2.138483,-0.51006 -3.841482,-7.78216 -2.43701,-10.40644 1.825586,-3.41114 9.794395,2.58555 13.600366,10.23455 2.266862,4.55579 2.383427,5.40048 0.535679,3.88183 z m 12.005412,-1.7567 c -0.03302,-2.91702 3.465354,-9.63517 10.994557,-21.11349 1.29843,-1.97946 2.61219,-4.0852 2.91947,-4.67942 1.13758,-2.19983 4.06836,-0.07 4.06836,2.95657 0,1.86894 0,1.86894 -3.08681,4.81623 -7.421,7.08556 -10.81959,11.18022 -13.5533,16.32916 -0.925262,1.74273 -1.335835,2.25995 -1.342277,1.69095 z m -6.667831,-7.69776 c -0.41244,-2.30037 -0.916729,-5.29375 -1.120641,-6.65194 -0.203913,-1.3582 -0.616137,-3.66007 -0.916055,-5.11528 -2.748089,-13.33381 -2.437881,-15.31678 1.837083,-11.74335 1.566496,1.30943 1.566496,1.30943 1.561095,14.02292 -0.006,14.16817 -0.235536,15.76758 -1.361482,9.48765 z m -6.75077,-0.34684 c -3.516221,-4.4075 -6.086842,-6.25006 -10.050402,-7.2039 -2.996527,-0.72113 -3.354748,-2.6094 -1.290497,-6.80248 2.844557,-5.77812 4.067877,-4.69309 10.682739,9.47507 2.968339,6.35779 3.158218,7.66507 0.65816,4.53131 z m 10.331951,-10.09746 c 0.189826,-10.6761 0.264075,-11.76156 0.82648,-12.08264 0.339856,-0.19403 0.963853,-0.70997 1.386661,-1.14653 1.036327,-1.07003 4.458715,-0.98973 4.882472,0.11456 0.263377,0.68634 -1.631918,8.18925 -3.636345,14.39521 -0.947533,2.93369 -2.060656,6.48492 -2.473607,7.89162 -1.152328,3.92535 -1.209142,3.39665 -0.985661,-9.17222 z m -36.212166,3.10626 c -1.427057,-2.17797 -1.194283,-15.48599 0.277329,-15.85534 0.471805,-0.11841 1.339346,-0.62047 1.927867,-1.11568 1.489227,-1.2531 5.759016,-0.42194 10.421006,2.02857 1.635411,0.85963 2.158644,3.43241 1.034846,5.08842 -1.52587,2.2485 -2.202403,3.89252 -2.684879,6.52445 -0.477457,2.60457 -0.477457,2.60457 -4.161906,3.01514 -2.026448,0.22582 -4.131346,0.58301 -4.677555,0.79375 -1.369667,0.52847 -1.494772,0.50041 -2.136708,-0.47931 z m 64.920603,-8.6021 c -0.32112,-0.35482 -0.58385,-0.83447 -0.58385,-1.06588 0,-0.8263 4.98854,-9.06206 5.90832,-9.75425 3.07689,-2.31556 3.44736,-4.12922 1.32363,-6.47994 -2.07887,-2.30106 -1.87042,-20.154786 0.23532,-20.154786 0.19872,0 0.81511,-0.323127 1.36974,-0.718062 1.88003,-1.3387 6.44907,1.956396 6.68522,4.821248 0.097,1.17696 0.39075,2.39787 0.65275,2.71314 0.3874,0.46615 0.45329,3.25915 0.35278,14.95331 -0.12359,14.3801 -0.12359,14.3801 -4.53331,14.7926 -2.42535,0.22687 -5.57104,0.66568 -6.99043,0.97513 -3.27402,0.71379 -3.70685,0.70571 -4.42017,-0.0825 z m -7.5894,-4.20555 c -1.17168,-0.85961 -1.80505,-1.58322 -1.80853,-2.06619 -0.0109,-1.50432 3.74809,-9.81136 4.68421,-10.35185 2.4821,-1.43308 2.6574,-4.02082 0.42571,-6.28449 -1.72429,-1.74899 -2.58091,-16.16869 -1.03624,-17.443284 0.3032,-0.250185 0.97097,-0.898772 1.48394,-1.441306 1.59077,-1.682456 5.72323,-0.876042 5.72823,1.117815 10e-4,0.509819 0.31774,1.403193 0.70323,1.985277 1.35719,2.049282 1.03711,20.061788 -0.36683,20.643318 -2.26169,0.93682 -2.88264,3.95192 -1.22067,5.92707 1.28006,1.52126 1.20624,1.78523 -1.86787,6.67892 -2.03633,3.24162 -3.59874,3.52848 -6.72518,1.23472 z m 40.68912,-0.80117 c -1.05673,-1.16767 -3.73142,-2.79696 -5.26408,-3.2066 -0.78759,-0.21051 -1.63042,-0.54541 -1.87296,-0.74423 -0.51742,-0.42414 -0.64925,-15.97972 -0.13809,-16.29563 0.51421,-0.3178 5.86016,5.56229 9.2216,10.14297 0.68793,0.93745 0.72825,7.58382 0.0576,9.49355 -0.52296,1.48918 -1.06036,1.65273 -2.00407,0.60994 z m -14.75644,-4.13772 c -0.31088,-3.29174 -0.2782,-19.93162 0.0401,-20.4083 0.72677,-1.08844 1.84558,-1.25347 2.87219,-0.42366 1.84792,1.49368 1.8612,1.56834 2.06366,11.60068 0.18988,9.40832 -0.6974,11.61253 -4.67445,11.61253 -0.0421,0 -0.17778,-1.07156 -0.30148,-2.38125 z m -34.21827,0.49553 c -2.41475,-1.11289 -2.41475,-1.11289 -2.19874,-2.87678 0.7228,-5.90229 1.14845,-7.64387 2.05523,-8.40909 2.13913,-1.8052 2.32735,-4.50662 0.4416,-6.33804 -1.42533,-1.38425 -2.01168,-17.506384 -0.67699,-18.614082 0.60153,-0.499221 4.78634,0.0021 6.16165,0.738155 2.17933,1.166344 3.34296,18.865287 1.35839,20.661297 -1.98517,1.79656 -2.20816,3.93759 -0.63316,6.07926 1.30676,1.77692 1.27124,2.03459 -0.92028,6.67625 -1.79503,3.80189 -1.82992,3.81489 -5.5877,2.08303 z m -37.794676,-0.83948 c -2.16088,-0.87913 -4.734338,-1.66322 -5.820833,-1.7735 -2.849404,-0.28921 -4.842627,-2.29936 -4.218069,-4.25389 1.381612,-4.32371 5.547776,-9.94463 7.370854,-9.94463 1.266882,0 1.380794,0.16915 3.088432,4.58611 4.072206,10.53312 4.833743,13.18975 3.728589,13.00726 -0.151609,-0.025 -2.018647,-0.75464 -4.148973,-1.62135 z m 8.098917,0.82197 c -0.862909,-0.37598 -1.190463,-0.86076 -1.7188,-2.54383 -0.359001,-1.14363 -1.739255,-4.8905 -3.06723,-8.32638 -2.412471,-6.2418 -2.414041,-6.24816 -1.862604,-7.56794 0.33739,-0.80748 0.473912,-1.80146 0.351251,-2.55733 -0.181392,-1.11779 -0.05158,-1.37528 1.352589,-2.6829 5.701799,-5.309767 7.730973,-5.165552 8.532703,0.60644 0.223576,1.60961 0.653919,4.67281 0.95632,6.80711 0.302401,2.13431 0.811756,6.23885 1.131898,9.1212 0.663939,5.97764 0.773144,5.64786 -2.27585,6.87278 -2.201986,0.88464 -2.024098,0.87047 -3.400277,0.27085 z m 21.353561,-1.94211 c -1.256425,-0.16777 -1.676601,-0.40414 -2.028187,-1.14098 -0.2439,-0.51116 -0.840457,-1.18951 -1.325686,-1.50744 -1.30599,-0.85572 -1.346827,-5.88556 -0.05466,-6.73222 2.022246,-1.32502 2.208936,-4.13599 0.407151,-6.13034 -1.671161,-1.84978 -1.951873,-13.264409 -0.376981,-15.329199 0.471755,-0.618505 1.021764,-1.555979 1.222244,-2.083276 0.212838,-0.559806 0.699968,-1.022932 1.170732,-1.113041 6.836575,-1.308587 6.274283,-2.072336 6.274283,8.522276 0,8.65405 0,8.65405 -1.411111,9.95678 -2.049889,1.89245 -1.858634,4.22438 0.514756,6.27618 0.568434,0.49142 0.866574,1.04443 0.76074,1.41111 -0.09572,0.33164 -0.432749,2.02283 -0.748957,3.75819 -0.858662,4.71239 -0.739645,4.60127 -4.404325,4.11196 z m -12.301343,-0.51569 c -0.3868,-0.47787 -0.990569,-3.45572 -1.297355,-6.39869 -0.35373,-3.39333 -1.149307,-9.56895 -1.768612,-13.72877 -0.607082,-4.077708 -0.575233,-4.669782 0.397591,-7.39087 1.053331,-2.946271 5.524863,-4.656253 7.272348,-2.781056 1.475613,1.58346 1.834889,13.427206 0.443787,14.629786 -2.299328,1.98772 -2.409306,4.3968 -0.297145,6.50896 1.62747,1.62747 1.730301,6.27174 0.156196,7.05432 -0.475957,0.23662 -1.118838,0.76624 -1.42863,1.17694 -0.680339,0.90195 -2.998925,1.52148 -3.47818,0.92938 z M 47.863228,122.0224 c -0.810155,-1.31086 3.623409,-11.74268 7.125441,-16.76559 21.870666,-31.368766 73.011521,-31.18148 93.905441,0.34389 2.45751,3.70798 3.45361,5.68245 3.06351,6.07255 -0.56071,0.56072 -10.35842,-10.16246 -11.26257,-12.326419 -0.68823,-1.647151 -2.81698,-3.098747 -4.54429,-3.098747 -0.92872,0 -1.93576,-0.399722 -3.41379,-1.35502 -1.15306,-0.74526 -2.56019,-1.547092 -3.12694,-1.781848 -0.65304,-0.270498 -1.2518,-0.928529 -1.6348,-1.796613 -0.84918,-1.924694 -3.01421,-2.791304 -4.95136,-1.981909 -1.87094,0.781724 -6.07505,-0.567931 -6.74698,-2.165998 -0.78522,-1.867478 -4.82562,-2.501174 -6.46837,-1.014499 -0.9007,0.81512 -3.93662,0.7639 -5.02561,-0.08479 -2.56862,-2.001816 -4.17903,-2.235047 -6.15828,-0.891888 -1.855897,1.259444 -5.888433,1.892113 -6.800282,1.066903 -1.780434,-1.611271 -4.68001,-0.964041 -6.766472,1.510382 -2.090134,2.478775 -4.482631,3.518429 -6.446918,2.801495 -2.90908,-1.061768 -6.242985,1.004901 -6.242985,3.869989 0,0.412319 -0.792325,1.288521 -2.009641,2.22238 -6.010416,4.610882 -5.883804,4.532422 -7.33897,4.547812 -2.247466,0.0238 -3.351389,1.29131 -3.351389,3.84808 0,1.18991 -0.295525,1.79927 -1.744916,3.59794 -1.73487,2.15296 -5.310639,8.67819 -5.310639,9.69111 0,0.29164 -0.555537,0.76237 -1.234529,1.04607 -0.678991,0.2837 -1.591805,1.06739 -2.028473,1.74152 -0.824677,1.27315 -1.139353,1.46439 -1.486188,0.9032 z"
         id="path440" /></g></g></svg>
